<mxfile host="app.diagrams.net" modified="2024-05-04T05:06:34.873Z" agent="Mozilla/5.0 (Windows NT 10.0; Win64; x64) AppleWebKit/537.36 (KHTML, like Gecko) Chrome/124.0.0.0 Safari/537.36 Edg/124.0.0.0" version="24.3.1" etag="dOMmpWg0hvqpdDDbmbVg" type="github">
  <diagram name="第 1 页" id="j1PzraUtxY94YbfTg9LY">
    <mxGraphModel>
      <root>
        <mxCell id="0" />
        <mxCell id="1" parent="0" />
      </root>
    </mxGraphModel>
  </diagram>
</mxfile>
